<svg width="584" height="365" fill="none" xmlns="http://www.w3.org/2000/svg">
  <path d="M547.845 250.286C578.788 135.85 497.42 19.5306 362.452 64.476c-117.478 39.078-213.699-79.4485-308.7364 60.555-62.31775 91.775 1.2377 246.043 124.3664 207.503 159.508-49.898 331.339 59.801 369.763-82.248z" fill="#E5EEFF"/>
  <path d="M154.726 91.2819c.108.1615.162.2691.27.4306.376.4844.807.9689 1.13 1.5072.323.4306.592.915.861 1.3995.107.1614.161.3229.269.4306.215.3229.538.5382.968.4844h.377c.054.1615.054.2691.054.323.215-.0539.323-.1077.592-.1615.161-.1615.108-.3768.054-.6459l-.162-2.4222c0-.3768-.054-.7536-.054-1.1842.054.1615.162.3768.162.5382.054.4845.43.7536.699 1.1304.054.1077.108.2153.162.323.108.2153.215.4844.323.6997.269.4306.484.8074.753 1.1842v.0538c0 .9151.7 1.3995 1.13 2.0455.054.0538.054.1076.108.1076.161.1077.323.2691.484.323.323.1076.216-.2692.377-.4306.108.1614.215.3229.323.5382.054-.0538.054-.1076.054-.1076-.054-.4306.107-.9151-.054-1.3995-.108-.3768-.054-.8074-.054-1.1842 0-1.0227-.269-2.0454-.592-3.0143-.161-.4306-.215-.9151-.377-1.3457-.107-.323-.269-.6459-.43-.9689 0-.0538-.054-.0538-.054-.1076.054-.5921-.269-1.0766-.377-1.6148-.161-.5921-.43-1.1842-.699-1.7763-.485-1.0766-.915-2.2069-1.399-3.2835-.216-.4844-.431-.9688-.7-1.4533-.646-1.1842-1.238-2.3684-1.884-3.6064-.376-.6459-.753-1.2918-1.13-1.9916-.107-.2153-.161-.4306-.269-.5921-.107-.2691-.161-.5383-.43-.7536-.108-.0538-.108-.3229-.162-.4306-.215-.4844-.484-.9689-.753-1.4533-.484-.8612-.915-1.7763-1.507-2.6375-.269-.4306-.484-.9151-.753-1.2919s-.485-.8612-.754-1.238c-.538-.8074-1.13-1.561-1.883-2.2069-.216-.2153-.377-.4844-.592-.7536-.269-.3229-.538-.6459-.754-1.0227-.592-.915-1.237-1.7224-2.045-2.4222-.161-.1615-.269-.3768-.43-.5921-.054-.0538-.108-.1076-.162-.1076-.107-.0539-.215-.1615-.322-.2153-.915-1.0227-2.045-1.7225-3.337-2.2069-.484-.1615-1.13-.1615-1.668-.1077-1.077.0538-2.153.2153-3.175.323-1.292.1076-2.583.2153-3.875.3229-.377.0539-.807.1077-1.184.1615-.592 0-1.184-.0538-1.776-.0538-.107 0-.161 0-.269-.0538-.861-.0539-1.668-.1077-2.529-.2692-.538-.1076-1.023-.3229-1.507-.5382-.377-.1615-.753-.2692-1.13-.4307-.377-.1614-.754-.2691-1.076-.4306-.539-.3229-1.023-.6459-1.453-1.0227-.054-.0538-.108-.2153-.108-.3229.054-.646.108-1.2381.161-1.884 0-.5383.216-1.0227.539-1.4533.161-.2691.269-.5921.43-.8612.108-.2692.215-.5383.484-.6998.108-.0538.162-.2691.216-.4306.215-.4306.376-.8612.592-1.2919.107-.1614.215-.3229.376-.4306.7-.5921 1.4-1.238 2.045-1.8301.054-.0538.108-.2691.108-.3768 0-.1076-.162-.2691-.215-.2691-.431-.0538-.861-.1077-1.238.1077-.108.0538-.323.1076-.431.1614-.376.1615-.699.323-1.076.4845-.161.0538-.377.1076-.538 0-.7-.323-1.507-.4845-2.26-.5383-.861-.0538-1.722.0538-2.422.5921-.108.0538-.269.1077-.377.1615-.43.2153-.915.4306-1.345.6997-.108.0539-.215.2153-.323.323-.7.5921-1.453 1.1304-2.153 1.7225-.215.1614-.322.3767-.484.5382-.323.3768-.807.5921-1.291.6459-1.238.1615-2.368-.2153-3.337-.8074-1.292-.7535-2.475-1.6686-3.713-2.5298-.861-.5921-1.453-1.3457-2.099-2.1531-.215-.2691-.43-.4844-.592-.7536-.43-.6459-.861-1.3456-1.238-1.9916-.107-.1614-.215-.2691-.323-.3768-.053-.0538-.107-.1614-.161-.2691-.269-.4844-.484-.9689-.753-1.4533-.108-.2692-.216-.5921-.323-.8612-.162-.323-.377-.5921-.5385-.9151-.269-.5921-.4843-1.1842-.8072-1.7763-.3767-.6997-.8072-1.3995-1.6144-1.7763-.5382-.2691-1.1301-.3768-1.7221-.5382-.9687-.323-1.9912-.323-2.9598-.5383-1.6145-.3768-3.2289-.2691-4.8434-.2691-.6458 0-1.2915.0538-1.8835 0-1.453-.0539-2.906.1076-4.3052.3229-1.6145.2691-3.2289.4845-4.8434.7536-.8072.1615-1.6144.3768-2.4216.5383-.5382.1076-1.0225.1076-1.5607.1614-.3229.0539-.5919.1077-.9148.1615-.2691.0538-.4844.1077-.7534.1615-.5382.1077-1.0763.1615-1.6145.2691-.6996.1077-1.3992.2692-2.0449.4306-1.184.2692-2.3141.4845-3.498.7536-1.0763.2692-2.1526.5921-3.1751.9151-1.453.4306-2.9598.915-4.4128 1.3995-.6458.2153-1.2378.3768-1.8297.5921-.3229.1076-.592.3229-.8611.4306-.3229.1615-.6458.323-1.0225.4844-.269.1077-.5919.2153-.7534.3768-.3767.323-.861.4306-1.2915.5921-.2153.0538-.3767.1615-.5382.2692-.2691.1614-.5381.3767-.8072.5382-.2153.1077-.3767.2692-.5382.3768.2153.5921.8073.5383 1.2378.7536h.1614c.6458-.1077 1.2916-.2153 1.9374-.2692.1076 0 .2152.0539.3229.1077.1076.1077.2152.2153.3228.323.1615.2691.3768.3768.6458.3768.7534-.0539 1.453-.0539 2.2064-.1077.4844-.0538.6458.0538.9149.4844.0538.0539.1076.1615.2153.1615.9686.0538 1.8835.0538 2.8522.1077.1614 0 .3228-.0539.5381-.0539.1076.2154.2153.4307.3229.5921.1076.2154.3229.323.592.2692.4843-.0538.9686-.0538 1.3991-.0538.3767.0538.7535.0538 1.0763 0 .3767-.0539.4306 0 .592.3767.0538.1077.1615.1615.2153.1615.8072 0 1.6144.0538 2.4216 0 .6458-.0538 1.2916 0 1.9374.1077.861.1076 1.6682.1076 2.5293-.0539.4843-.1076 1.0225.0539 1.5068.1077.3767 0 .8072.1077 1.1839.0538.7534-.1076 1.453.0539 2.2064.1077.3768 0 .8073-.0538 1.184-.0538.1614 0 .3229.0538.4843.0538.592.1076 1.1301.2153 1.7221.3229.3767.0539.6996 0 .9687.323.3229.3768.7534.4844 1.2377.4844.2691 0 .592-.0538.6996.323 0 .0538.1614.1077.2691.1615.0538-.0538.1076-.1077.2152-.1615.2691.2691.5382.4306.9149.3768.2153 0 .3229.1077.3229.323s.1076.3229.3229.3767c.3767.0539.5919.4307.9148.5921.0538.0539.1615.1077.2691.1615.1076.4306.4305.8074.7534 1.1304.1615.1615.2691.2691.4305.4306.2153.2691.4844.5383.6996.8074.1615.1615.2691.323.4305.5383.0539.1076.1615.1615.2691.2153.2153.0538.3767.2153.4305.4306.2691.6459.7535 1.0765 1.2378 1.561.2691.2153.4305.4844.6458.7536.2152.2691.4305.5382.8072.6459.2152.1076.3767.3229.5919.4844.3229.323.6458.6459.9687.9151.1615.1615.3229.3768.5382.5382.1614.1615.3767.2692.5919.4307.0539.0538.1077.1076.2153.1614.4305.3768.7534.8613 1.3454 1.0766.1076 0 .1614.1076.2152.1615.6458.5382 1.2378 1.1303 1.8836 1.6686.3767.3229.7534.5383 1.1301.8612.0538 0 .0538.0538.1076.0538.3229.3768.6996.6998 1.0225 1.0766.1076.1076.215.1615.323.2691.269.2692.592.4845.753.8074.323.6998.969.8074 1.615.9689.054 0 .161.0538.215.0538-.161.3768-.323.7536-.484 1.1842-.054.1615-.054.3768-.108.5383-.161.5921-.269 1.1842-.43 1.7763-.054.1615-.054.2691-.108.4306-.054.4844-.108.9689-.215 1.4533-.108.4306-.108.9151-.377 1.238-.323.4306-.484.9151-.807 1.3457-.2694.323-.4308.8074-.6461 1.1842-.2153.3768-.5381.7536-.7534 1.1304-.2691.3767-.4843.8074-.7534 1.238-.4305.6459-.8072 1.2918-1.2378 1.9377-.0538.1077-.0538.2154-.1076.2692-.1614.4306-.3767.8074-.5381 1.238-.1077.323 0 .5383.2152.8074.1615.1615.2691.3768.4305.5383.1077.1076.2691.1614.4306.2691.2152.1615.4843.323.6996.4844.0538.0539.1076.0539.1614.1077.6458.2691 1.2378.4844 1.8831.7536.108.0538.27.0538.377.1076.269.1077.484.2692.754.3768.376.1615.699.323 1.076.4306.699.2153 1.345.4845 2.045.646.861.2153 1.668.0538 2.368-.3768.376-.2692.538-.646.753-1.0766.323-.7535.7-1.5071 1.023-2.2607.053-.1615.107-.323.215-.5383.161-.4844.377-.9688.538-1.4533.215-.5383.484-1.0227.7-1.561.215-.4844.376-.9689.538-1.4533.054-.1615.161-.323.269-.4306.592-.5921 1.184-1.1304 1.776-1.7225.807-.8074 1.614-1.561 2.475-2.3684.054.323.215.323.485.323h.269c.43 0 .861-.0538 1.345.0538.484.1077 1.022 0 1.561 0h.376c.377 0 .808.0539 1.184.1077.323.0538.646.1076.969.1615.215.0538.43.0538.592.0538.969.0538 1.937-.2153 2.906-.4306.161-.0538.323-.0538.484-.0538 0 .0538.054.0538.054.1076-.161.2153-.269.3768-.43.5921-.162.1615-.323.323-.485.4844-.215.323-.107.6998.269.646.485-.0539.915-.2153 1.399-.323.485-.0538 1.023-.1076 1.507-.1076.216 0 .431.2153.646.2691.323.0538.7 0 1.023 0 1.076 0 2.206-.0538 3.282-.0538.162 0 .323.1076.431.1614.215.1077.43.323.753.2153.108-.0538.269 0 .431 0 .269 0 .484 0 .753.0539.215.0538.484.1615.7.2691.161.0538.323.1615.484.1077.269 0 .538 0 .807.1614.431.2692.861.4845 1.346.6998.053.0538.161.1076.161.2153.054.2691.269.4306.484.5383.377.1076.7.2153 1.077.3229.107.0539.215.1077.215.1615.323.5921.7 1.1304 1.292 1.4533.322.2153.645.3768.914.646.323.2691.539.6459.808.915.161.1615.269.323.43.4306.431.3768.807.8074 1.13 1.2381.269.3767.7.6997 1.023 1.0765.161.1615.269.2691.376.4306.269.323.592.6998.861 1.0227 0 .0538.054.0538.054.1077.538.1614.7.6997 1.023 1.0765.161.1615.269.323.376.4306.162.2153.323.4306.485.5921.377.4845.807.9151 1.238 1.3457.107.1076.269.1615.376.2153.538.0538.754.3768.969.8074.054.0538.108.1615.161.1615.431.1076.592.4306.808.7536.269.4306.592.7535 1.184.6997.43-.0538.43 0 .538.4306.053.1077.107.2153.161.3768.108-.0538.215-.1615.323-.2153l.054-.0538c.054-.1077.054-.1615.107-.1615z" fill="#96BAF8"/>
  <path d="M324.727 135.367c-50.586 9.689-88.256 3.23-88.256-9.15 0-24.761 37.724-26.5371 49.509-9.689.539-45.7531 70.498-45.7531 82.337-19.9162 9.687-12.6493 60.273-5.921 60.273 26.3752 0 11.842-37.132 16.686-103.863 12.38zM166.511 300.077c0-24.761-37.724-26.537-49.51-9.689-.484-41.07-56.9358-45.268-77.0088-26.967 6.8883 17.763 17.0055 33.695 29.9749 46.345 2.6908-.162 5.4892-.323 8.2875-.485 50.5864 9.635 88.2564 3.176 88.2564-9.204z" fill="#fff"/>
  <path d="M435.372 90.5285c-.322-.5921-.161-1.2918.539-1.7763.968-.6997 2.044-.8612 3.175-.9689 1.076-.1076 2.206-.2691 3.282-.3767.269-1.4534.969-2.0455 2.853-2.3146 2.475-.323 5.004-.6459 7.534-.323.968.1077 1.453-.4306 1.829-1.1303.7-1.3457.915-2.8529.915-4.36.054-2.2607.108-4.5753-.161-6.7822-.216-1.6148-.808-3.2834-1.453-4.7906-2.045-5.0597-5.005-9.635-7.803-14.2641-.808-1.3457-1.184-3.0143-1.615-4.5753-.43-1.561-.646-3.2296-.43-4.8444.053-.2153-.108-.5383-.216-.7536-.753-1.8301-1.399-3.7141-1.022-5.7595.054-.4306.161-.8612.377-1.1842.43-.6459.484-1.2918.43-2.0454-.215-2.9066 1.13-5.1135 3.337-6.836.861-.6459 1.776-1.1842 2.798-1.8301 1.292 1.9377 2.529 3.7679 3.659 5.598 1.023 1.6686 2.153 3.3372 2.422 5.275.215 1.6148 1.076 2.8528 1.722 4.2523 1.453 3.122 2.476 6.3516 3.068 9.7965.053.2692.161.5383.322.6998 3.445 3.6602 5.92 7.9664 8.127 12.434 2.367 4.8444 4.197 9.9041 5.65 15.0715.054.1077.054.2153.108.4306.646-.8612 1.184-1.6686 1.722-2.4222 2.26-3.2834 4.52-6.5669 6.78-9.7965.27-.3768.862-.6997 1.346-.8074 2.368-.5921 4.789-1.238 7.211-1.6148 5.059-.7535 10.117-1.3995 15.23-1.9377 10.547-1.0766 21.095-1.5072 31.697-1.3457 4.466.0538 8.987.3768 13.507.5383-.484 1.7224-.538 1.7224-1.56 1.5071-.323.323-.539.6998-.861.8074-.646.2153-1.292.2691-1.992.3768-.538.0538-.968.2153-1.453.4844-.914.4845-1.991.646-2.959.9689-.27.1077-.485.2692-.754.4306-.377.2153-.753.4845-1.13.5383-1.83.3768-3.659.7536-5.489 1.0227-1.937.2692-3.929.4845-5.866.6998-.108 0-.215 0-.269.0538-.861 1.238-2.045.5383-3.121.5921-.592 0-1.184-.1615-1.884-.2691.162.2691.216.4844.377.8074-1.561-.0539-3.068-.1615-4.79-.2153.377.3229.539.4844.808.6997h-7.75c.162.1615.431.3768.646.5921 0 .0538 0 .1076-.054.1615-.861-.1615-1.668-.2692-2.529-.4306.108.2153.269.4306.43.6459-.107.0538-.161.1615-.215.2153-4.574 2.0992-8.449 5.275-12.001 8.7738-3.928 3.8217-7.426 8.0202-10.655 12.3802-.215.2691-.269.5921-.43.915-.269.3768-.539.6998-.861 1.0227-.269.8074.107 1.2919.861 1.7225 4.466 2.7452 8.987 5.329 13.776 7.428 1.077.485 2.045 1.13 3.014 1.723.108.053.215.107.269.107 1.076-.215 1.722.485 2.422 1.023v.215c-.377 0-.808.162-1.131.054-2.098-.646-4.143-1.292-6.188-1.992-.431-.161-.807-.322-1.238-.107-.323.107-.7-.054-1.076-.054h-.431c-.161 0-.323.161-.43.108-.915-.269-1.83.161-2.691.107-.646-.054-1.292-.161-1.937-.215-.431-.054-.861 0-1.292 0-.161 0-.269-.054-.43-.054-.377-.054-.808-.215-1.184-.161-.646.107-1.238-.054-1.669-.485-.592-.538-1.184-.484-1.883-.323-1.615.431-3.229.808-4.79 1.346-3.659 1.238-7.265 1.238-10.978.323-5.92-1.453-11.732-3.176-17.436-5.4366-2.314-.9151-4.198-2.476-6.135-3.9832-1.13-.8612-2.045-1.9378-3.175-2.799-1.883-1.3457-3.928-2.3684-6.35-2.0992-.269.0538-.538-.0539-.807-.1077-.485-.1615-1.023-.2691-1.669-.3768z" fill="#96BAF8"/>
  <path d="M166.243 241.242h-63.555V216.32l65.977-89.299h34.011v84.24h15.391v29.981h-15.391v27.559h-36.433v-27.559zm0-29.981v-43.923l-30.997 43.923h30.997zM290.987 271.386c-7.965 0-15.391-1.292-22.28-3.929-6.888-2.638-12.915-6.836-18.028-12.65-5.112-5.813-9.148-13.403-12.054-22.768-2.906-9.366-4.359-20.778-4.359-34.127v-4.037c0-12.434 1.453-23.038 4.359-31.811 2.906-8.774 6.942-15.987 12.054-21.585 5.113-5.598 11.14-9.689 18.028-12.273 6.889-2.583 14.315-3.821 22.28-3.821 7.964 0 15.391 1.292 22.279 3.821 6.888 2.584 12.862 6.675 18.028 12.273 5.112 5.598 9.149 12.811 12.055 21.585 2.906 8.773 4.359 19.377 4.359 31.811v4.037c0 13.349-1.453 24.761-4.359 34.127-2.906 9.365-6.943 16.955-12.055 22.768-5.112 5.814-11.14 10.012-18.028 12.65-6.888 2.637-14.315 3.929-22.279 3.929zm0-29.982c2.69 0 5.273-.699 7.803-2.045 2.475-1.346 4.682-3.66 6.458-6.998 1.829-3.283 3.282-7.751 4.359-13.349 1.076-5.598 1.614-12.649 1.614-21.154v-4.037c0-7.428-.538-13.672-1.614-18.731-1.077-5.06-2.53-9.151-4.359-12.273-1.83-3.122-3.983-5.275-6.458-6.567-2.476-1.292-5.113-1.937-7.803-1.937-2.691 0-5.274.645-7.804 1.937-2.475 1.292-4.681 3.499-6.457 6.567-1.83 3.122-3.283 7.213-4.359 12.273-1.077 5.059-1.615 11.303-1.615 18.731v4.037c0 8.505.538 15.556 1.615 21.154 1.076 5.598 2.529 10.066 4.359 13.349 1.829 3.284 3.982 5.652 6.457 6.998 2.476 1.399 5.113 2.045 7.804 2.045zM424.393 241.242h-63.555V216.32l65.977-89.299h34.011v84.24h15.391v29.981h-15.391v27.559h-36.433v-27.559zm0-29.981v-43.923l-30.997 43.923h30.997z" fill="#FF9EAE"/>
  <path d="M87.0797 148.391c-4.1438-31.219 36.5403-30.25 35.4103-5.113 13.131-56.5184 60.918-38.702 64.47-3.983.7 6.997-19.427 12.541-34.818 7.966-26.854 11.95-63.7708 10.981-65.0623 1.13zM544.24 261.913c-9.095 1.561-17.598 4.414-23.679 8.289 0-43.761-75.717-46.668-72.865-5.813-19.804-21.154-57.313-5.813-57.313 16.794 0 16.202 20.503 18.947 73.565 11.68 13.669 4.36 35.303 6.675 57.151 6.729 9.579-9.366 17.383-21.639 23.141-37.679z" fill="#fff"/>
</svg>
